<?xml version="1.0" standalone="no"?>
<!DOCTYPE svg PUBLIC "-//W3C//DTD SVG 20010904//EN"
 "http://www.w3.org/TR/2001/REC-SVG-20010904/DTD/svg10.dtd">
<svg version="1.0" xmlns="http://www.w3.org/2000/svg"
 width="512.000000pt" height="512.000000pt" viewBox="0 0 512.000000 512.000000"
 preserveAspectRatio="xMidYMid meet">

<g transform="translate(0.000000,512.000000) scale(0.100000,-0.100000)"
fill="#000000" stroke="none">
<path d="M0 3620 l0 -350 2560 0 2560 0 0 350 0 350 -2560 0 -2560 0 0 -350z"/>
<path d="M3449 2200 c-278 -43 -481 -316 -441 -594 18 -120 65 -212 156 -302
169 -166 393 -201 606 -95 l76 38 35 -24 c95 -63 268 -90 387 -59 105 26 170
64 247 140 74 72 103 119 136 213 94 276 -72 583 -364 670 -117 35 -292 12
-403 -53 l-42 -25 -54 30 c-96 54 -229 78 -339 61z"/>
</g>
</svg>
